<?xml version="1.0" encoding="UTF-8" standalone="no"?>
<svg
   xmlns:dc="http://purl.org/dc/elements/1.1/"
   xmlns:cc="http://creativecommons.org/ns#"
   xmlns:rdf="http://www.w3.org/1999/02/22-rdf-syntax-ns#"
   xmlns:svg="http://www.w3.org/2000/svg"
   xmlns="http://www.w3.org/2000/svg"
   xmlns:sodipodi="http://sodipodi.sourceforge.net/DTD/sodipodi-0.dtd"
   xmlns:inkscape="http://www.inkscape.org/namespaces/inkscape"
   enable-background="new 0 0 32 32"
   height="32px"
   id="Слой_1"
   version="1.1"
   viewBox="0 0 32 32"
   width="32px"
   xml:space="preserve"
   sodipodi:docname="up.svg"
   inkscape:version="0.92.0 r15299"><metadata
     id="metadata32"><rdf:RDF><cc:Work
         rdf:about=""><dc:format>image/svg+xml</dc:format><dc:type
           rdf:resource="http://purl.org/dc/dcmitype/StillImage" /></cc:Work></rdf:RDF></metadata><defs
     id="defs30" /><sodipodi:namedview
     pagecolor="#ffffff"
     bordercolor="#666666"
     borderopacity="1"
     objecttolerance="10"
     gridtolerance="10"
     guidetolerance="10"
     inkscape:pageopacity="0"
     inkscape:pageshadow="2"
     inkscape:window-width="1366"
     inkscape:window-height="705"
     id="namedview28"
     showgrid="false"
     inkscape:zoom="16.3125"
     inkscape:cx="13.088123"
     inkscape:cy="16.061303"
     inkscape:window-x="-8"
     inkscape:window-y="-8"
     inkscape:window-maximized="1"
     inkscape:current-layer="Chevron_Up_Circle" /><g
     id="Chevron_Up_Circle"><path
       d="M16,0C7.163,0,0,7.164,0,16c0,8.837,7.163,16,16,16c8.836,0,16-7.163,16-16C32,7.164,24.836,0,16,0z M16,30   C8.28,30,1.969,23.72,1.969,16C1.969,8.28,8.28,2,16,2c7.72,0,14,6.28,14,14C30,23.72,23.72,30,16,30z"
       fill="#121313"
       id="path10"
       style="fill:#ffffff;fill-opacity:1" /><path
       d="M16.699,11.293c-0.384-0.38-1.044-0.381-1.429,0l-6.999,6.899c-0.394,0.391-0.394,1.024,0,1.414   c0.395,0.391,1.034,0.391,1.429,0l6.285-6.195l6.285,6.196c0.394,0.391,1.034,0.391,1.429,0c0.394-0.391,0.394-1.024,0-1.414   L16.699,11.293z"
       fill="#121313"
       id="path12"
       style="fill:#ffffff;fill-opacity:1" /></g><g
     id="g15" /><g
     id="g17" /><g
     id="g19" /><g
     id="g21" /><g
     id="g23" /><g
     id="g25" /></svg>